<svg width="718" height="176" viewBox="0 0 718 176" fill="none" xmlns="http://www.w3.org/2000/svg">
<path d="M9.75 22.125H31.395V22.32L172.77 22.125V43.77H31.395V65.025L163.215 64.83V86.475H31.395V122.355H172.77V143.805L31.395 144H20.67H9.945L9.75 22.125ZM213.636 144H192.186L191.991 87.45V22.32V21.93H202.911H313.086C322.056 21.93 329.726 25.18 336.096 31.68C342.596 38.05 345.846 45.72 345.846 54.69C345.846 59.37 344.936 63.79 343.116 67.95C348.576 69.9 353.386 73.02 357.546 77.31C365.216 84.85 369.051 94.015 369.051 104.805C369.051 115.595 365.216 124.825 357.546 132.495C349.876 140.165 340.711 144 330.051 144H213.636ZM315.816 87.45C314.906 87.45 313.996 87.45 313.086 87.45H213.831V122.355H330.051C334.731 122.355 338.761 120.665 342.141 117.285C345.651 113.775 347.406 109.615 347.406 104.805C347.406 99.995 345.651 95.9 342.141 92.52C338.761 89.14 334.731 87.45 330.051 87.45H315.816ZM213.636 65.805H314.646C317.116 65.415 319.196 64.31 320.886 62.49C323.096 60.41 324.201 57.875 324.201 54.885C324.201 51.765 323.096 49.165 320.886 47.085C318.676 44.875 316.076 43.77 313.086 43.77H213.636V65.805ZM588.732 22.125H614.862L643.722 64.245L672.582 22.125H698.907L656.787 83.16L698.712 144H672.387L643.722 102.27L615.057 144H588.927L630.657 83.16L588.732 22.125Z" fill="#4A82F6"/>
<ellipse cx="47.5108" cy="67.9193" rx="47.5108" ry="67.9193" transform="matrix(-0.982939 -0.183931 -0.183931 0.982939 584.059 26.4781)" fill="white" stroke="#4A82F6" stroke-width="15"/>
<ellipse cx="47.5108" cy="67.9193" rx="47.5108" ry="67.9193" transform="matrix(-0.982935 0.183951 0.183951 0.982935 479.4 9)" fill="white" stroke="#4A82F6" stroke-width="15"/>
<ellipse cx="23.2644" cy="22.9457" rx="23.2644" ry="22.9457" transform="matrix(-1 0 0 1 543.904 92.4977)" fill="black"/>
<ellipse cx="7.96727" cy="5.09905" rx="7.96727" ry="5.09905" transform="matrix(-0.962872 0.269959 0.269959 0.962872 520.755 95.6846)" fill="white"/>
<ellipse cx="7.96727" cy="5.09905" rx="7.96727" ry="5.09905" transform="matrix(-0.962872 0.269959 0.269959 0.962872 533.503 126.279)" fill="white"/>
<ellipse cx="23.2644" cy="22.9457" rx="23.2644" ry="22.9457" transform="matrix(-0.714887 -0.69924 -0.69924 0.714887 489.799 114.806)" fill="black"/>
<ellipse cx="7.96727" cy="5.09905" rx="7.96727" ry="5.09905" transform="matrix(-0.877111 -0.480288 -0.480288 0.877111 471.022 100.897)" fill="white"/>
<ellipse cx="7.96727" cy="5.09905" rx="7.96727" ry="5.09905" transform="matrix(-0.877111 -0.480288 -0.480288 0.877111 458.742 131.682)" fill="white"/>
</svg>
