<svg width="199" height="151" viewBox="0 0 199 151" fill="none" xmlns="http://www.w3.org/2000/svg">
<ellipse cx="47.5108" cy="67.9193" rx="47.5108" ry="67.9193" transform="matrix(-0.982939 -0.183931 -0.183931 0.982939 198.059 17.4781)" fill="white" stroke="#4A82F6" stroke-width="15"/>
<ellipse cx="47.5108" cy="67.9193" rx="47.5108" ry="67.9193" transform="matrix(-0.982935 0.183951 0.183951 0.982935 93.4001 0)" fill="white" stroke="#4A82F6" stroke-width="15"/>
<ellipse cx="23.2644" cy="22.9457" rx="23.2644" ry="22.9457" transform="matrix(-1 0 0 1 157.904 83.4977)" fill="black"/>
<ellipse cx="7.96727" cy="5.09905" rx="7.96727" ry="5.09905" transform="matrix(-0.962872 0.269959 0.269959 0.962872 134.755 86.6846)" fill="white"/>
<ellipse cx="7.96727" cy="5.09905" rx="7.96727" ry="5.09905" transform="matrix(-0.962872 0.269959 0.269959 0.962872 147.503 117.279)" fill="white"/>
<ellipse cx="23.2644" cy="22.9457" rx="23.2644" ry="22.9457" transform="matrix(-0.714887 -0.69924 -0.69924 0.714887 103.799 105.806)" fill="black"/>
<ellipse cx="7.96727" cy="5.09905" rx="7.96727" ry="5.09905" transform="matrix(-0.877111 -0.480288 -0.480288 0.877111 85.0219 91.8971)" fill="white"/>
<ellipse cx="7.96727" cy="5.09905" rx="7.96727" ry="5.09905" transform="matrix(-0.877111 -0.480288 -0.480288 0.877111 72.7422 122.682)" fill="white"/>
</svg>
